<?xml version="1.0" encoding="UTF-8"?>
<svg id="Layer_2" data-name="Layer 2" xmlns="http://www.w3.org/2000/svg" viewBox="0 0 65.7 53.56">
  <defs>
    <style>
      .cls-1 {
        fill: #fff;
        stroke-width: 0px;
      }
    </style>
  </defs>
  <g id="Layer_1-2" data-name="Layer 1">
    <g>
      <path class="cls-1" d="M14.13,34.41c-4.72-2.28-7.95-9.05-2.28-19.53,15.38-24.7,34.32-5.17,18.5,20.94-11.59,28.67-39.79,17.29-27.16,2.68.87-.55,1.73-.71,1.5.47-2.99,19.87,12.33,12.56,20.31-5.04-3.15,1.81-7.01,2.36-10.87.47ZM29.56,7.25c-6.49-3.92-21.55,21.6-13.39,25.04,8.97,4.58,19.85-21.18,13.39-25.04Z"/>
      <path class="cls-1" d="M53.1,52.52c-17.27-.27,3.17-26.12,2.28-28.19-1.1-.63-9.69,4.72-14.25,12.2-2.28,2.01-7.49,17.19-8.98,15.28-1.26-1.42-1.97-3.62-.32-8.35C34.03,38.83,53.12-.3,59.24,0c2.7,7.96-6.77,17.21-11.65,25.99,5.91-6.76,15.66-8.13,12.52,2.76-1.73,3.46-5.51,9.21-7.32,13.31-1.97,4.57-1.57,8.27,1.34,8.11,4.99.5,10.11-13.55,11.42-10.95,1.36,5.72-6.82,13.59-12.44,13.31Z"/>
    </g>
  </g>
</svg>