<?xml version="1.0" encoding="UTF-8"?>
<svg id="Layer_2" data-name="Layer 2" xmlns="http://www.w3.org/2000/svg" viewBox="0 0 142 142">
  <defs>
    <style>
      .cls-1 {
        fill: #ff007a;
      }

      .cls-1, .cls-2 {
        stroke-width: 0px;
      }

      .cls-2 {
        fill: #00a4ff;
      }
    </style>
  </defs>
  <g id="Layer_1-2" data-name="Layer 1">
    <rect class="cls-2" width="142" height="142"/>
    <g>
      <path class="cls-1" d="M43.13,82.37c-7.04-3.4-11.84-13.49-3.4-29.08,22.9-36.78,51.11-7.7,27.55,31.19-17.26,42.69-59.25,25.75-40.46,3.99,1.29-.82,2.58-1.05,2.23.7-4.46,29.58,18.37,18.7,30.25-7.5-4.69,2.7-10.44,3.52-16.18.7ZM66.11,41.91c-9.67-5.84-32.09,32.17-19.93,37.29,13.35,6.82,29.56-31.54,19.93-37.29Z"/>
      <path class="cls-1" d="M101.17,109.34c-25.73-.4,4.73-38.9,3.4-41.98-1.64-.94-14.43,7.04-21.23,18.18-3.39,3-11.16,25.6-13.37,22.75-1.88-2.11-2.93-5.4-.47-12.43,3.26-6.9,31.69-65.18,40.81-64.73,4.02,11.85-10.08,25.63-17.35,38.7,8.8-10.07,23.32-12.1,18.65,4.11-2.58,5.16-8.21,13.72-10.91,19.82-2.93,6.8-2.35,12.31,1.99,12.08,7.44.74,15.05-20.18,17-16.3,2.03,8.52-10.16,20.24-18.53,19.82Z"/>
    </g>
  </g>
</svg>