<?xml version="1.0" encoding="UTF-8"?>
<svg id="Layer_2" data-name="Layer 2" xmlns="http://www.w3.org/2000/svg" viewBox="0 0 197.31 44.85">
  <defs>
    <style>
      .cls-1 {
        fill: #fff;
        stroke-width: 0px;
      }
    </style>
  </defs>
  <g id="Layer_1-2" data-name="Layer 1">
    <g>
      <path class="cls-1" d="M9.25.93v15.6c12.24-13.84,28.07,5.28,21.61,19.06-2.58,9.6-16.68,12.35-22.03,4.23,1.61,6.11-4.67,3.42-8.1,3.96C3.41,38.23-6.69-7.01,9.25.93ZM23.05,24.52c-7.8-19.59-23.72,11.64-6.84,13.69,6.79.02,8.1-8.47,6.84-13.69Z"/>
      <path class="cls-1" d="M45.92.93v15.6c12.25-13.84,28.07,5.28,21.6,19.06-2.58,9.6-16.68,12.35-22.03,4.23,1.61,6.11-4.67,3.42-8.1,3.96,2.68-5.56-7.41-50.8,8.52-42.85ZM59.72,24.52c-5.16-15.18-19.84.99-12.36,10.68,6.92,8.73,15.45-2.85,12.36-10.68Z"/>
      <path class="cls-1" d="M82.59.93v15.6c12.24-13.84,28.07,5.28,21.61,19.06-2.58,9.6-16.68,12.35-22.03,4.23,1.61,6.11-4.67,3.42-8.1,3.96,2.68-5.56-7.41-50.8,8.52-42.85ZM96.4,24.52c-7.8-19.59-23.72,11.64-6.84,13.69,6.79.02,8.1-8.47,6.84-13.69Z"/>
      <path class="cls-1" d="M119.86,36.34c2.95,3.09,10.8,2.28,12.24-2.16,23.6,1.72-24.06,24.66-22.87-5.89,3.67-41.37,63.68,9.77,8.52,2.04.12,2.76.82,4.76,2.1,6ZM129.5,20.02c-1.48-1.89-5.88-2.14-8.04-.99-11.59,8.67,6.25,5.18,10.17,5.91-.4-2.16-1.11-3.8-2.13-4.92Z"/>
      <path class="cls-1" d="M144.83,22.3c7.66-20.09,34.96-12.22,28.2,14.58,1.45,8.41-.24,6.97-7.56,6.9-.46-5.05-2.14-.59-5.4-.06-10.19,4.84-22.59-6.97-12.87-15.49,4.51-4.24,15.33-.14,17.32-6.42.19-6.16-11.4-5.56-11.16.48,0,0-8.52,0-8.52,0ZM164.52,28.6c-3.54,2.74-11.89.07-12.12,6.36,2.66,9.24,15.11,1.52,12.12-6.36Z"/>
      <path class="cls-1" d="M196.69,12.76c.66,6.35-.53,5.97-6.24,5.7,1.19,3.19-3.23,20.25,3.6,18.97,11.98,5.99-12.98,11.97-12.12-.66-1.29-3.9,3.92-21.96-5.16-18.3-1.31-12.93,7.05,2.79,5.16-15.01,18.19-2.59-.22,11.25,14.77,9.3Z"/>
    </g>
  </g>
</svg>