<?xml version="1.0" encoding="UTF-8"?>
<svg id="Layer_2" data-name="Layer 2" xmlns="http://www.w3.org/2000/svg" viewBox="0 0 451.53 371.63">
  <defs>
    <style>
      .cls-1 {
        fill: #ff7bdd;
      }

      .cls-1, .cls-2 {
        stroke-width: 0px;
      }

      .cls-2 {
        fill: #fff;
      }
    </style>
  </defs>
  <g id="bass">
    <g>
      <g>
        <path class="cls-1" d="M336.88,309.31c32.76-10.83,60.45-36.12,74.2-67.77,15.62-35.96,13.23-76.92,8.86-115.88-1.68-14.99-3.79-30.48-11.75-43.29-9.86-15.89-27.16-25.32-43.69-34.05-30.57-16.15-61.89-32.56-96.09-37.59-34.2-5.03-72.44,3.42-94.62,29.94"/>
        <path class="cls-2" d="M339.41,318.47c32.2-10.88,60.06-33.86,75.98-64.03,18.55-35.15,19.12-75.88,15.53-114.54-1.79-19.28-3.13-39.54-11.71-57.22-7.9-16.26-22.85-27.44-38.17-36.2-16.76-9.58-34.13-18.51-51.73-26.43s-37.46-15.31-57.46-18.37c-37.24-5.69-79.31,2.42-104.76,32.24-3.33,3.9-3.83,9.61,0,13.44,3.41,3.41,10.09,3.92,13.44,0,19.45-22.79,50.05-30.39,79.03-28.15,35.58,2.75,68.42,20.51,99.36,36.86,13.43,7.1,27.64,14.29,37.56,26.15,10.45,12.48,12.46,29.6,14.18,45.19,3.88,35.15,6.34,72.09-6.39,105.82-11.77,31.19-38.43,56.27-69.9,66.9-11.52,3.89-6.58,22.25,5.05,18.32h0Z"/>
      </g>
      <g>
        <path class="cls-1" d="M48.67,180.66c.78-43.57,25.32-84.47,59.08-112.02,33.76-27.55,75.92-43.03,118.54-52.11,21.86-4.65,45.1-7.66,66.2-.27,16.53,5.8,30.27,17.49,42.96,29.58,22.91,21.84,44.34,46.74,53.97,76.9,15.96,50-3.15,103.9-24.35,151.91-9.06,20.53-19.07,41.56-36.24,56-22.34,18.8-52.98,23.42-81.91,27.31-31.67,4.26-64.85,8.37-94.81-2.76-33.96-12.63-58.05-42.73-78.23-72.82-22.33-33.31-42.85-71.79-37.16-111.49"/>
        <path class="cls-2" d="M58.17,180.66c.77-31.8,14.88-62,35.78-85.6,22.54-25.45,52.45-43.2,84.13-54.92,16.51-6.11,33.53-10.79,50.74-14.45s35.83-6.58,53.36-2.52c17.07,3.96,30.88,14.75,43.46,26.47,12.44,11.58,24.54,23.89,34.56,37.66,10.08,13.87,18.13,29.02,22.25,45.74,4.27,17.31,4.31,35.65,1.53,53.21-5.63,35.67-19.84,71.01-36.22,103.05-7.39,14.46-16.51,28.68-30.14,38.01s-29.62,14.02-45.71,17.17c-17.17,3.36-34.73,5.61-52.14,7.21-18.24,1.68-36.97,2.16-54.85-2.45-31.8-8.19-55.19-32.84-73.8-58.64-19.93-27.64-40.57-59.1-45.09-93.62-1.13-8.66-.97-17.46.19-26.11.68-5.09-4.85-9.5-9.5-9.5-5.7,0-8.82,4.39-9.5,9.5-5.33,39.83,13.5,77.98,34.59,110.44,19.02,29.27,41.26,59.45,72.7,76.28,36.79,19.7,78.49,14.5,118.15,9.08,36.16-4.94,72.7-13.25,96.27-43.52,11.64-14.95,19.4-32.26,26.88-49.55,8.23-19.02,15.9-38.35,21.32-58.38,10.51-38.9,11.26-79.84-7.44-116.4-8.45-16.53-20.14-31.36-32.77-44.88s-26.93-27.63-43.01-37.75c-35.27-22.2-78.12-13.16-115.76-2.53s-71.83,26.39-100.74,51.28c-26.66,22.95-47.57,54.49-55.07,89.11-1.89,8.73-2.95,17.66-3.17,26.59-.3,12.23,18.7,12.23,19,0h0Z"/>
      </g>
      <path class="cls-2" d="M138.27,103.62c0,50.16-.01,100.33-.02,150.49,6.22-.84,12.44-1.68,18.66-2.53-5.29-13.04-7.88-28.65-.68-41.54,4.92-8.82,14.78-16.85,25.5-15.32,9.64,1.37,17.37,9.83,12.11,19.38-6.9,12.54-23.79,14.16-36.44,15.97-5.08.73-7.87,7.19-6.64,11.69,1.5,5.46,6.59,7.36,11.69,6.64,15.17-2.17,31.49-5.33,42.28-17.24,10.54-11.62,13.7-28.66,3.65-41.63-8.71-11.23-23.7-15.85-37.41-13.01-13.81,2.87-25.98,13.35-32.15,25.87-8.39,17.02-7.25,36.97-.23,54.25,1.78,4.38,5.39,7.56,10.42,6.8,4.61-.69,8.24-4.51,8.24-9.33,0-50.16.01-100.33.02-150.49,0-12.23-19-12.25-19,0h0Z"/>
      <path class="cls-2" d="M246.62,84.35c.04,51.2.08,102.4.12,153.6,6.22-.84,12.44-1.68,18.66-2.53-2.01-12.58-.58-26.26,6.65-37.01,5.21-7.75,15.64-15.4,25.53-14.01,1.27.18,3.43.48,4.35,1.54,1.18,1.37.65.44.34,1.75-1.18,4.95-8.93,9.71-12.62,12.65-10.78,8.59-22.87,15.57-35.42,21.22-4.68,2.11-5.8,8.9-3.41,13,2.82,4.81,8.3,5.52,13,3.41,13.59-6.12,26.17-13.9,37.89-23.1,10.84-8.52,25.06-21.17,17.83-36.49-5.96-12.63-22.06-14.78-34.23-11.58-12.9,3.39-24.04,12.58-30.84,23.93-9,15.01-10.08,32.86-7.38,49.76,1.72,10.76,18.67,7.93,18.66-2.53-.04-51.2-.08-102.4-.12-153.6,0-12.23-19.01-12.25-19,0h0Z"/>
      <path class="cls-2" d="M374.14,310.01c23.52-1.35,45.95,8.09,61.48,25.8,8.08,9.21,21.47-4.27,13.44-13.44-18.54-21.15-46.84-32.97-74.91-31.36-12.16.7-12.24,19.7,0,19h0Z"/>
      <path class="cls-2" d="M66.72,273.15c-13.3,12.44-26.6,24.89-39.9,37.33C14.94,321.6,1.73,332.22.03,349.47c-.5,5.11,4.73,9.5,9.5,9.5,5.56,0,9-4.37,9.5-9.5.54-5.45,5.05-10.06,8.7-13.72,5.42-5.45,11.19-10.58,16.8-15.83l35.63-33.33c8.95-8.37-4.51-21.79-13.44-13.44h0Z"/>
    </g>
  </g>
</svg>