<?xml version="1.0" encoding="UTF-8"?>
<svg id="Layer_2" data-name="Layer 2" xmlns="http://www.w3.org/2000/svg" viewBox="0 0 268.6 541.56">
  <defs>
    <style>
      .cls-1 {
        fill: #ff7bdd;
      }

      .cls-1, .cls-2 {
        stroke-width: 0px;
      }

      .cls-2 {
        fill: #fff;
      }
    </style>
  </defs>
  <g id="hihat">
    <g>
      <g>
        <path class="cls-1" d="M61.03,190.1c-15.4,4.76-29.13-10.4-38.17-23.75-6.06-8.95-12.3-18.39-13.32-29.15-2.03-21.31,16.73-38.73,35.42-49.17,40.2-22.45,87.17-29.95,133.2-30.91,19.21-.4,39.3.49,56.11,9.81,16.81,9.32,29.07,29.44,23.5,47.83-3.27,10.81-11.82,19.06-20.04,26.8-19.95,18.78-40.38,37.89-65.3,49.28-36.47,16.66-78.31,14.99-118.35,13"/>
        <path class="cls-2" d="M58.51,180.94c-7.33,1.99-13.58-3.19-18.43-8.16-6.12-6.27-11.14-13.79-15.5-21.36s-7.16-15.79-4.6-24.54c2.25-7.7,7.74-14.03,13.58-19.31,13.79-12.47,32.33-20.26,49.76-26.12,19.08-6.42,38.97-10.48,58.97-12.62,19.92-2.13,40.65-3.56,60.63-1.47,17.35,1.81,34.82,8.72,43.31,24.87,3.24,6.16,4.42,13.28,2.4,20-2.63,8.74-10.02,15.42-16.43,21.5-14.28,13.55-28.72,27.26-45.22,38.11-39.84,26.21-87.13,24.76-132.9,22.49-12.22-.61-12.19,18.4,0,19,47.18,2.34,96.46,3.25,138.17-22.34,19.67-12.07,36.7-28.02,53.37-43.83,8.23-7.8,16.03-16.16,20.24-26.87,3.76-9.56,3.54-20.56.05-30.17-17.21-47.31-76.54-44.6-117.51-40.9-23.48,2.12-46.91,6.18-69.31,13.62-21.12,7.01-43.01,16.52-59.54,31.8-8.29,7.66-15.48,17.46-18.27,28.55-3.33,13.25.2,26.22,6.89,37.81,11.01,19.09,29.94,45.15,55.39,38.25,11.79-3.2,6.79-21.53-5.05-18.32h0Z"/>
      </g>
      <g>
        <path class="cls-1" d="M128.46,122.7c1.27-37.74.48-75.54-2.36-113.2"/>
        <path class="cls-2" d="M137.96,122.7c1.23-37.75.44-75.53-2.36-113.2-.38-5.12-4.09-9.5-9.5-9.5-4.85,0-9.88,4.36-9.5,9.5,2.8,37.67,3.59,75.45,2.36,113.2-.4,12.23,18.6,12.22,19,0h0Z"/>
      </g>
      <g>
        <path class="cls-1" d="M122.14,197.38c-.94,92.39-5.03,184.74-12.27,276.85"/>
        <path class="cls-2" d="M112.64,197.38c-.75,71.93-3.38,143.84-7.92,215.63-1.29,20.42-2.75,40.82-4.34,61.22-.4,5.12,4.65,9.5,9.5,9.5,5.47,0,9.1-4.36,9.5-9.5,5.61-71.72,9.36-143.57,11.18-215.49.52-20.45.88-40.91,1.09-61.36.13-12.23-18.87-12.24-19,0h0Z"/>
      </g>
      <g>
        <path class="cls-1" d="M109.23,476.65c-20.75,19.51-42.49,37.97-65.09,55.3"/>
        <path class="cls-2" d="M102.51,469.94c-20.18,18.93-41.23,36.95-63.17,53.81-4.06,3.12-6.23,8.17-3.41,13,2.34,4,8.9,6.55,13,3.41,23.24-17.86,45.63-36.73,67.01-56.78,8.94-8.38-4.52-21.8-13.44-13.44h0Z"/>
      </g>
      <path class="cls-2" d="M121.4,476.65h115.62c12.23,0,12.25-19,0-19h-115.62c-12.23,0-12.25,19,0,19h0Z"/>
      <g>
        <path class="cls-1" d="M109.34,457.13c-25.98.92-52.09-2.03-77.21-8.72"/>
        <path class="cls-2" d="M109.34,447.63c-25.26.8-50.24-1.97-74.68-8.39-11.84-3.11-16.89,15.21-5.05,18.32,25.98,6.82,52.88,9.92,79.73,9.06,12.2-.39,12.25-19.39,0-19h0Z"/>
      </g>
    </g>
  </g>
</svg>