<?xml version="1.0" encoding="UTF-8"?>
<svg id="Layer_2" data-name="Layer 2" xmlns="http://www.w3.org/2000/svg" viewBox="0 0 291.39 499.14">
  <defs>
    <style>
      .cls-1 {
        fill: #ff7bdd;
      }

      .cls-1, .cls-2 {
        stroke-width: 0px;
      }

      .cls-2 {
        fill: #fff;
      }
    </style>
  </defs>
  <g id="snare">
    <g>
      <g>
        <path class="cls-1" d="M273.87,159.75v-86.72L11.31,80.26v89.12"/>
        <path class="cls-2" d="M283.37,159.75v-86.72c0-5.03-4.35-9.64-9.5-9.5-29.66.82-59.32,1.63-88.98,2.45-47.06,1.3-94.11,2.59-141.17,3.89-10.8.3-21.61.59-32.41.89-5.13.14-9.5,4.24-9.5,9.5v89.12c0,12.23,19,12.25,19,0v-89.12l-9.5,9.5c29.66-.82,59.32-1.63,88.98-2.45,47.06-1.3,94.11-2.59,141.17-3.89,10.8-.3,21.61-.59,32.41-.89l-9.5-9.5v86.72c0,12.23,19,12.25,19,0h0Z"/>
      </g>
      <g>
        <path class="cls-1" d="M279.3,73.65c-10.66,30.49-37.86,53.16-68.05,64.63-30.2,11.47-63.26,13-95.53,11.56-27.11-1.21-55.4-4.89-77.65-20.42C15.81,113.89,2.02,83.25,13.49,58.67c11.07-23.72,39.6-32.94,65.29-37.99,27.98-5.51,56.35-9.04,84.82-10.58,30.38-1.64,62.75-.46,88.25,16.14s39.86,53.55,22.69,78.67"/>
        <path class="cls-2" d="M270.13,71.12c-14.76,41.06-58.43,61.76-98.98,67.47-24.22,3.41-49.5,2.95-73.79.46-20.63-2.12-43.54-7.34-59.3-21.72-12.86-11.74-22.6-30.44-18.21-48.19,4.44-17.93,21.49-27.78,37.84-33.26,22.1-7.4,46.04-10.53,69.1-13.18,24.28-2.79,49.23-5.02,73.65-2.91,22.22,1.92,46.28,9.07,60.32,27.56,11.44,15.05,16.54,36.16,5.57,52.76-6.76,10.23,9.69,19.76,16.41,9.59,12.43-18.81,10.43-42.67.53-62.09-10.98-21.55-31.39-35.33-54.25-41.88C203.49-1.59,176.22-.53,150.02,1.48c-28.36,2.17-57.24,5.64-84.89,12.49-21.55,5.34-43.79,14.71-56.47,33.89-13.14,19.88-10.3,45.65,1.63,65.35,13.14,21.7,35.68,34.44,59.83,40.38,25.88,6.37,53.92,7.14,80.44,5.84,30.2-1.48,60.85-7.65,87.03-23.4,23.08-13.89,41.7-34.34,50.87-59.85,1.74-4.83-1.96-10.4-6.64-11.69-5.27-1.45-9.94,1.79-11.69,6.64h0Z"/>
      </g>
      <g>
        <path class="cls-1" d="M12.18,166.02c37.11,33.37,87.61,51.42,137.47,49.11,49.86-2.3,98.48-24.93,132.36-61.58"/>
        <path class="cls-2" d="M5.46,172.74c31.14,27.75,70.02,45.28,111.37,50.52,40.4,5.12,81.69-2.96,117.73-21.74,20.2-10.52,38.64-24.59,54.17-41.24,8.33-8.94-5.08-22.4-13.44-13.44-25.19,27.01-57.99,45.94-93.95,54.36s-74.86,4.89-109.6-9.02c-19.3-7.73-37.33-19.05-52.84-32.87-9.1-8.11-22.59,5.28-13.44,13.44h0Z"/>
      </g>
      <g>
        <path class="cls-1" d="M136.38,236.84c1.29,61.02.42,122.08-2.59,183.04"/>
        <path class="cls-2" d="M126.88,236.84c1.26,61.02.4,122.08-2.59,183.04-.6,12.22,18.4,12.19,19,0,2.99-60.96,3.86-122.02,2.59-183.04-.25-12.21-19.25-12.25-19,0h0Z"/>
      </g>
      <g>
        <path class="cls-1" d="M133.44,421.22c-28.15,18.64-53.27,41.85-74.07,68.44"/>
        <path class="cls-2" d="M128.64,413.01c-28.83,19.2-54.57,42.69-75.99,69.93-3.17,4.03-3.93,9.5,0,13.44,3.29,3.29,10.25,4.06,13.44,0,20.41-25.95,44.66-48.65,72.15-66.96,10.13-6.75.63-23.21-9.59-16.41h0Z"/>
      </g>
      <g>
        <path class="cls-1" d="M129.38,416.58c44.66,1.92,88.94,12.21,129.87,30.18"/>
        <path class="cls-2" d="M129.38,426.08c42.96,1.96,85.63,11.68,125.08,28.88,4.7,2.05,10.19,1.38,13-3.41,2.35-4.02,1.32-10.94-3.41-13-42.69-18.61-88.12-29.36-134.67-31.48-12.22-.56-12.2,18.44,0,19h0Z"/>
      </g>
      <g>
        <path class="cls-1" d="M138.54,417.55c2.7,20.87,1.22,42.28-4.33,62.59"/>
        <path class="cls-2" d="M129.04,417.55c2.49,20.2,1.26,40.39-3.99,60.06-3.16,11.83,15.17,16.87,18.32,5.05,5.66-21.2,7.36-43.32,4.67-65.11-.63-5.09-3.92-9.5-9.5-9.5-4.65,0-10.13,4.37-9.5,9.5h0Z"/>
      </g>
      <path class="cls-2" d="M134.16,236.7c12.23,0,12.25-19,0-19s-12.25,19,0,19h0Z"/>
    </g>
  </g>
</svg>