<?xml version="1.0" encoding="UTF-8"?>
<svg id="Layer_2" data-name="Layer 2" xmlns="http://www.w3.org/2000/svg" viewBox="0 0 322.11 397.58">
  <defs>
    <style>
      .cls-1 {
        fill: #ff7bdd;
      }

      .cls-1, .cls-2 {
        stroke-width: 0px;
      }

      .cls-2 {
        fill: #fff;
      }
    </style>
  </defs>
  <g id="tom">
    <g>
      <g>
        <path class="cls-1" d="M286.57,58.36l.17,220.13c0,5.02-.08,10.35-2.82,14.55-2.17,3.32-5.71,5.47-9.18,7.39-56.28,31.24-127.16,34.67-186.19,9.01-9.49-4.13-19.31-9.59-23.7-18.96-2.71-5.78-2.99-12.35-3.23-18.73-2.55-67.93-5.11-135.86-7.66-203.79"/>
        <path class="cls-2" d="M277.07,58.36c.04,47.6.07,95.19.11,142.79.02,23.47.04,46.93.05,70.4,0,4.51.78,10.05-.53,14.44-1.17,3.93-5.59,5.62-8.94,7.43-8.24,4.44-16.76,8.27-25.57,11.43-36.72,13.17-77.07,15.86-115.14,7.2-9.64-2.19-19.13-5.08-28.35-8.64-7.54-2.91-15.86-6.18-21.67-12-6.91-6.93-5.84-17.62-6.18-26.66-.45-11.99-.9-23.98-1.35-35.96-2.01-53.61-4.03-107.22-6.04-160.84-.46-12.19-19.46-12.25-19,0,1.91,50.95,3.83,101.9,5.74,152.84.48,12.65.95,25.31,1.43,37.96.45,11.85-.33,24.69,4.68,35.72,8.56,18.85,33.13,26.53,51.37,32.09,40.48,12.32,84.75,12.54,125.45,1.11,10.32-2.9,20.37-6.63,30.17-10.97,8.9-3.94,19.96-8.23,26.47-15.76,8.14-9.41,6.48-22.8,6.47-34.36,0-12.56-.02-25.12-.03-37.68-.04-56.85-.09-113.7-.13-170.55,0-12.23-19.01-12.25-19,0h0Z"/>
      </g>
      <g>
        <path class="cls-1" d="M9.7,361.94c16.79-15.4,32.25-32.25,46.16-50.31"/>
        <path class="cls-2" d="M16.41,368.66c16.78-15.46,32.2-32.27,46.16-50.31,3.14-4.05,3.95-9.48,0-13.44-3.27-3.27-10.28-4.08-13.44,0-13.96,18.04-29.38,34.85-46.16,50.31-9.01,8.3,4.45,21.71,13.44,13.44h0Z"/>
      </g>
      <g>
        <path class="cls-1" d="M279.51,303.98c8.61,13.54,19.94,25.35,33.12,34.51"/>
        <path class="cls-2" d="M271.3,308.77c9.69,15.01,21.94,27.63,36.53,37.91,4.2,2.96,10.56.75,13-3.41,2.78-4.75.8-10.03-3.41-13-11.82-8.33-21.88-18.96-29.71-31.1-6.61-10.24-23.06-.72-16.41,9.59h0Z"/>
      </g>
      <g>
        <path class="cls-1" d="M152.1,337.8c-1.72,17.88-7.69,35.33-17.3,50.51"/>
        <path class="cls-2" d="M142.6,337.8c-1.69,16.3-7.37,31.84-16,45.71-6.48,10.41,9.95,19.96,16.41,9.59,10.48-16.85,16.55-35.61,18.59-55.3.53-5.11-4.75-9.5-9.5-9.5-5.58,0-8.97,4.37-9.5,9.5h0Z"/>
      </g>
      <g>
        <path class="cls-1" d="M70.23,58.89c29.36-24.11,63.97-43.25,101.63-48.22,37.66-4.96,78.57,5.93,104.25,33.93,4.07,4.44,7.88,9.64,8.31,15.64.68,9.59-7.27,17.44-15.03,23.11-32.4,23.66-73.51,35.09-113.48,31.56s-78.43-22.01-106.18-50.98"/>
        <path class="cls-2" d="M76.95,65.61C123.63,27.5,191.11.9,247.87,34.03c6.05,3.53,11.65,7.62,16.73,12.43,3.94,3.73,10.98,9.56,10.36,15.66-.66,6.46-8.3,11.61-13.1,14.96-6.62,4.63-13.59,8.75-20.81,12.36-28.34,14.15-61.59,19.78-92.98,15.04-34.82-5.26-67.17-21.99-91.63-47.29-8.52-8.81-21.94,4.64-13.44,13.44,24.89,25.74,57.75,43.94,92.91,50.92,36.98,7.34,75.21,2.43,109.45-13.19,8.36-3.81,16.41-8.32,24.02-13.47s15.22-10.81,20.16-18.72c11.47-18.41-2.48-36.02-16.59-47.65C246.3,6.59,210.54-2.66,176.39.65c-42.38,4.11-80.38,24.98-112.88,51.52-3.98,3.25-3.37,10.06,0,13.44,3.93,3.93,9.45,3.26,13.44,0h0Z"/>
      </g>
    </g>
  </g>
</svg>